name C:\Users\u0150099\Documents\master_thesis\3dpredictsim\Results\debug\Fal_s1_mtjc2_sc_cspx10_oy2_ATx70_Fpsl10_MTc3_MTPm_k1_d01_MTJm_nl_MG_exp5_table_d01_PF_Song2011_ls146_FDB2_lTs125_Fpsl10_ig21_wAk5e+04_wa2e+03_wpMnD1e+03.mot
datacolumns 130
datarows 4
range 1.04705708 1.07846879
endheader
time	pelvis_tilt	pelvis_list	pelvis_rotation	pelvis_tx	pelvis_ty	pelvis_tz	hip_flexion_l	hip_adduction_l	hip_rotation_l	hip_flexion_r	hip_adduction_r	hip_rotation_r	knee_angle_l	knee_angle_r	ankle_angle_l	ankle_angle_r	subtalar_angle_l	subtalar_angle_r	mtj_angle_l	mtj_angle_r	mtp_angle_l	mtp_angle_r	lumbar_extension	lumbar_bending	lumbar_rotation	arm_flex_l	arm_add_l	arm_rot_l	arm_flex_r	arm_add_r	arm_rot_r	elbow_flex_l	elbow_flex_r	pro_sup_l	pro_sup_r	glut_med1_l/activation	glut_med2_l/activation	glut_med3_l/activation	glut_min1_l/activation	glut_min2_l/activation	glut_min3_l/activation	semimem_l/activation	semiten_l/activation	bifemlh_l/activation	bifemsh_l/activation	sar_l/activation	add_long_l/activation	add_brev_l/activation	add_mag1_l/activation	add_mag2_l/activation	add_mag3_l/activation	tfl_l/activation	pect_l/activation	grac_l/activation	glut_max1_l/activation	glut_max2_l/activation	glut_max3_l/activation	iliacus_l/activation	psoas_l/activation	quad_fem_l/activation	gem_l/activation	peri_l/activation	rect_fem_l/activation	vas_med_l/activation	vas_int_l/activation	vas_lat_l/activation	med_gas_l/activation	lat_gas_l/activation	soleus_l/activation	tib_post_l/activation	flex_dig_l/activation	flex_hal_l/activation	tib_ant_l/activation	per_brev_l/activation	per_long_l/activation	per_tert_l/activation	ext_dig_l/activation	ext_hal_l/activation	FDB_l/activation	ercspn_l/activation	intobl_l/activation	extobl_l/activation	glut_med1_r/activation	glut_med2_r/activation	glut_med3_r/activation	glut_min1_r/activation	glut_min2_r/activation	glut_min3_r/activation	semimem_r/activation	semiten_r/activation	bifemlh_r/activation	bifemsh_r/activation	sar_r/activation	add_long_r/activation	add_brev_r/activation	add_mag1_r/activation	add_mag2_r/activation	add_mag3_r/activation	tfl_r/activation	pect_r/activation	grac_r/activation	glut_max1_r/activation	glut_max2_r/activation	glut_max3_r/activation	iliacus_r/activation	psoas_r/activation	quad_fem_r/activation	gem_r/activation	peri_r/activation	rect_fem_r/activation	vas_med_r/activation	vas_int_r/activation	vas_lat_r/activation	med_gas_r/activation	lat_gas_r/activation	soleus_r/activation	tib_post_r/activation	flex_dig_r/activation	flex_hal_r/activation	tib_ant_r/activation	per_brev_r/activation	per_long_r/activation	per_tert_r/activation	ext_dig_r/activation	ext_hal_r/activation	FDB_r/activation	ercspn_r/activation	intobl_r/activation	extobl_r/activation	
          1.04705708	         -2.90982484	         -1.87899606	          3.46430358	          1.39258591	          0.90391251	         -0.00401523	        -11.72711108	          0.85593055	          6.27510003	         31.55645242	          2.06885796	         -5.67908116	        -18.53492431	        -15.03654783	         11.59128488	         12.05146868	         14.55176151	         10.48016546	          3.30000835	         -1.02517843	         10.27139710	          2.87832521	         -4.18159478	          1.43994762	         -2.19814644	          4.90238113	        -13.83019937	         19.37630757	         -6.20084383	        -13.46794083	          1.79131117	         43.23997671	         24.55345569	         86.51662706	         86.51662706	          0.16973033	          0.07479927	          0.05000025	          0.30392452	          0.19882430	          0.11202696	          0.05000036	          0.05000004	          0.05000003	          0.05000012	          0.10269474	          0.05000001	          0.05000001	          0.05000003	          0.05000012	          0.05000007	          0.56666511	          0.05000012	          0.05000006	          0.05000068	          0.05000037	          0.05000011	          0.33760400	          0.69448439	          0.05000002	          0.05000009	          0.05000002	          0.47914509	          0.15844653	          0.17115705	          0.15180147	          0.35343611	          0.48490441	          0.25693443	          0.87085173	          0.49785464	          0.68504857	          0.05000000	          0.06897942	          0.20275281	          0.05000001	          0.05000000	          0.13072803	          0.65377150	          0.05000000	          0.05000000	          0.05000000	          0.05000014	          0.05000004	          0.05872543	          0.05000002	          0.05000003	          0.05000020	          0.38632035	          0.06897363	          0.24318729	          0.06897362	          0.05773215	          0.07493162	          0.15006125	          0.12153969	          0.07614607	          0.19566275	          0.05872569	          0.05039734	          0.06897380	          0.05872280	          0.09669877	          0.12947622	          0.05000017	          0.07104280	          0.15189620	          0.05000027	          0.05000005	          0.05000000	          0.05000003	          0.05000003	          0.05000002	          0.05872545	          0.05872511	          0.05197929	          0.18772021	          0.05000041	          0.05000014	          0.42088035	          0.05000003	          0.05000002	          0.18112591	          0.62758646	          0.40109458	          0.27180159	          0.06333982	          0.10211111	          0.11384834	
          1.05752765	         -2.91253020	         -2.05257836	          3.75199535	          1.40887019	          0.90256825	         -0.00362482	        -12.47741608	          0.42999835	          6.38560006	         31.43839266	          2.35954432	         -5.69793298	        -18.82331490	        -15.69365711	         10.32439867	         11.45250381	         14.89242868	         10.78104451	          3.14136691	         -0.60296569	         12.39898727	          2.78546018	         -4.01488425	          1.68371258	         -2.30166555	          4.46389720	        -13.80243597	         19.26719116	         -6.84300676	        -13.44970710	          1.23034138	         44.96587663	         23.88007102	         86.51662706	         86.51662706	          0.14451169	          0.06368555	          0.05000000	          0.25876721	          0.16928285	          0.09538192	          0.05000058	          0.05000008	          0.05000008	          0.05000004	          0.08743633	          0.07667938	          0.06133721	          0.05000024	          0.05000069	          0.06650461	          0.54229383	          0.05000055	          0.05000008	          0.05000023	          0.05000015	          0.05000017	          0.28744255	          0.64321777	          0.05000000	          0.05000006	          0.05000063	          0.44777010	          0.13490466	          0.18261247	          0.16789099	          0.33212651	          0.47385932	          0.23223423	          0.83083212	          0.53054868	          0.67968413	          0.05000000	          0.05873041	          0.17262764	          0.05000001	          0.05000029	          0.11130436	          0.55663363	          0.05000000	          0.05811919	          0.05000000	          0.05872546	          0.05872548	          0.05000003	          0.07849710	          0.05872565	          0.05708777	          0.33479206	          0.05872549	          0.20705436	          0.05872548	          0.05000013	          0.12336699	          0.14059380	          0.18192128	          0.06483240	          0.21659759	          0.05000024	          0.05000123	          0.05872564	          0.05000012	          0.12319528	          0.18353408	          0.07269946	          0.08100992	          0.41565528	          0.13126917	          0.08150255	          0.08101015	          0.05000001	          0.05000001	          0.05000000	          0.05000000	          0.05000000	          0.05000000	          0.21341396	          0.07127749	          0.07467284	          0.43556368	          0.10454647	          0.05872551	          0.17196834	          0.67164127	          0.34149968	          0.23141711	          0.05392874	          0.08693937	          0.09693267	
          1.06799822	         -2.91425628	         -2.22842931	          4.01950960	          1.42539348	          0.90125408	         -0.00322274	        -13.13863749	         -0.00633173	          6.47322467	         31.29740471	          2.61726152	         -5.66636660	        -19.24519622	        -16.93982074	          8.88504600	         10.52339431	         15.28803945	         11.06890156	          2.92110863	         -0.11496661	         14.74336758	          2.62983895	         -3.83796649	          1.93490371	         -2.39628520	          3.95837072	        -13.76353989	         19.09818283	         -7.48176064	        -13.46561110	          0.97034666	         46.66834633	         23.19425464	         86.51662706	         86.51662706	          0.12304005	          0.05422326	          0.05872546	          0.22031940	          0.14413069	          0.08121002	          0.05872522	          0.05872545	          0.05872542	          0.05872559	          0.07445499	          0.17291566	          0.10515722	          0.05872551	          0.05872549	          0.05872539	          0.54350359	          0.09515201	          0.05872563	          0.05872450	          0.05872532	          0.05872545	          0.24473414	          0.64434232	          0.05872548	          0.05872549	          0.05000008	          0.44609673	          0.11486045	          0.21124443	          0.14294568	          0.31197576	          0.46605616	          0.21365339	          0.77072442	          0.45171943	          0.57869625	          0.05000000	          0.05000420	          0.14697850	          0.05000001	          0.05000000	          0.09476668	          0.47392859	          0.05000184	          0.05872549	          0.05872549	          0.05000001	          0.05000002	          0.05001298	          0.06683395	          0.05000016	          0.05000003	          0.28504842	          0.05000001	          0.17629009	          0.05000000	          0.06362346	          0.10503710	          0.15493906	          0.15489151	          0.20281892	          0.26908295	          0.05011107	          0.06897322	          0.05000015	          0.05000014	          0.19838822	          0.24919843	          0.06897355	          0.06897354	          0.40412798	          0.11176513	          0.06939290	          0.06897361	          0.09591208	          0.08514576	          0.07306454	          0.06897362	          0.06897379	          0.06897361	          0.18170494	          0.06897364	          0.06897360	          0.49542568	          0.13989620	          0.05000004	          0.28999364	          0.63281610	          0.29075940	          0.19703298	          0.05000000	          0.07402185	          0.08253035	
          1.07846879	         -2.91613069	         -2.41312235	          4.26630169	          1.44209928	          0.90004618	         -0.00281182	        -13.68736891	         -0.45205532	          6.53943564	         31.04726180	          2.84414785	         -5.57262239	        -19.81882698	        -18.24808068	          7.27582086	          9.61613436	         15.67306483	         11.35097511	          2.55605063	          0.28576868	         17.32275099	          2.43661008	         -3.65371962	          2.19816388	         -2.48354380	          3.40015238	        -13.72110515	         18.91417062	         -8.10080212	        -13.50819359	          0.97656413	         48.32718268	         22.48627954	         86.51662706	         86.51662706	          0.12804191	          0.05000001	          0.05000000	          0.24290722	          0.12271567	          0.06914378	          0.05000012	          0.05000001	          0.05000001	          0.05000011	          0.06339263	          0.20714351	          0.08953290	          0.05000005	          0.05000010	          0.05000006	          0.57741940	          0.08101432	          0.05000014	          0.05000014	          0.05000007	          0.05000004	          0.22535264	          0.74887127	          0.05000001	          0.05000004	          0.05000001	          0.38800228	          0.14566677	          0.17985762	          0.14321397	          0.26562217	          0.39680919	          0.18190861	          0.65620961	          0.38460266	          0.49271315	          0.08926918	          0.05000000	          0.12514033	          0.05000000	          0.05000000	          0.08068617	          0.40351192	          0.08093722	          0.05000001	          0.05000001	          0.31156469	          0.31988939	          0.36628458	          0.14529808	          0.05050522	          0.21669903	          0.24269572	          0.16251647	          0.16294598	          0.11870981	          0.05872558	          0.08943064	          0.13191819	          0.13187769	          0.17268417	          0.29849719	          0.05000004	          0.05872558	          0.25976048	          0.23676819	          0.26696617	          0.30051154	          0.05872548	          0.05872548	          0.34408237	          0.09515902	          0.11119079	          0.05872546	          0.08166139	          0.07249474	          0.06220856	          0.05872547	          0.05872562	          0.05872546	          0.26154479	          0.05872550	          0.05872548	          0.59854279	          0.11911032	          0.09017077	          0.38009234	          0.78375991	          0.58231761	          0.52712072	          0.06610766	          0.09175402	          0.07026793	
